<?xml version="1.0" encoding="UTF-8" standalone="no"?>
<svg
   xmlns:dc="http://purl.org/dc/elements/1.1/"
   xmlns:cc="http://creativecommons.org/ns#"
   xmlns:rdf="http://www.w3.org/1999/02/22-rdf-syntax-ns#"
   xmlns:svg="http://www.w3.org/2000/svg"
   xmlns="http://www.w3.org/2000/svg"
   xmlns:sodipodi="http://sodipodi.sourceforge.net/DTD/sodipodi-0.dtd"
   xmlns:inkscape="http://www.inkscape.org/namespaces/inkscape"
   x="0px"
   y="0px"
   viewBox="0 0 928 74.79"
   enable-background="new 0 0 928 74.79"
   xml:space="preserve"
   id="svg2"
   version="1.1"
   inkscape:version="0.48.4 r9939"
   width="100%"
   height="100%"
   sodipodi:docname="desktop-flow.svg"><metadata
   id="metadata89"><rdf:RDF><cc:Work
       rdf:about=""><dc:format>image/svg+xml</dc:format><dc:type
         rdf:resource="http://purl.org/dc/dcmitype/StillImage" /></cc:Work></rdf:RDF></metadata><defs
   id="defs87" /><sodipodi:namedview
   pagecolor="#ffffff"
   bordercolor="#666666"
   borderopacity="1"
   objecttolerance="10"
   gridtolerance="10"
   guidetolerance="10"
   inkscape:pageopacity="0"
   inkscape:pageshadow="2"
   inkscape:window-width="1837"
   inkscape:window-height="983"
   id="namedview85"
   showgrid="false"
   inkscape:zoom="1.3092672"
   inkscape:cx="313.04315"
   inkscape:cy="20.622222"
   inkscape:window-x="0"
   inkscape:window-y="0"
   inkscape:window-maximized="0"
   inkscape:current-layer="svg2" />
<g
   id="branch"
   style="fill:#e50000;fill-opacity:0.41233766">
	<path
   fill="#27B6B7"
   d="M88.74,54.17H86c-17.74,0-20.09-5.57-23.35-13.27c-0.5-1.18-1.01-2.39-1.6-3.65   c-3.8-8.07-10.86-23.08-24.47-23.08c-1.1,0-2,0.9-2,2s0.9,2,2,2c9.73,0,15.77,9.99,20.85,20.79c0.55,1.18,1.05,2.36,1.54,3.5   c1.77,4.19,3.45,8.15,7.37,11.09c4.21,3.16,10.46,4.63,19.67,4.63h2.79c-0.18-0.67-0.29-1.37-0.29-2.09   C88.5,55.42,88.59,54.78,88.74,54.17z"
   id="path5"
   style="fill:#e50000;fill-opacity:0.41233766" />
	<path
   fill="#27B6B7"
   d="M132.74,54.17h-28.48c0.15,0.61,0.24,1.25,0.24,1.91c0,0.73-0.11,1.42-0.29,2.09h28.57   c-0.18-0.67-0.29-1.37-0.29-2.09C132.5,55.42,132.59,54.78,132.74,54.17z"
   id="path7"
   style="fill:#e50000;fill-opacity:0.41233766" />
	<path
   fill="#27B6B7"
   d="M721.03,58.17c-0.14-1.33-0.17-2.67-0.05-4h-9.1c0.08,0.63,0.13,1.26,0.13,1.91c0,0.71-0.07,1.41-0.16,2.09   H721.03z"
   id="path9"
   style="fill:#e50000;fill-opacity:0.41233766" />
	<path
   fill="#27B6B7"
   d="M220.74,54.17h-72.48c0.15,0.61,0.24,1.25,0.24,1.91c0,0.73-0.11,1.42-0.29,2.09h72.57   c-0.18-0.67-0.29-1.37-0.29-2.09C220.5,55.42,220.59,54.78,220.74,54.17z"
   id="path11"
   style="fill:#e50000;fill-opacity:0.41233766" />
	<path
   fill="#27B6B7"
   d="M484.74,54.17h-28.48c0.15,0.61,0.24,1.25,0.24,1.91c0,0.73-0.11,1.42-0.29,2.09h28.57   c-0.18-0.67-0.29-1.37-0.29-2.09C484.5,55.42,484.59,54.78,484.74,54.17z"
   id="path13"
   style="fill:#e50000;fill-opacity:0.41233766" />
	<path
   fill="#27B6B7"
   d="M528.74,54.17h-28.48c0.15,0.61,0.24,1.25,0.24,1.91c0,0.73-0.11,1.42-0.29,2.09h28.57   c-0.18-0.67-0.29-1.37-0.29-2.09C528.5,55.42,528.59,54.78,528.74,54.17z"
   id="path15"
   style="fill:#e50000;fill-opacity:0.41233766" />
	<path
   fill="#27B6B7"
   d="M681.16,58.17c-0.09-0.69-0.16-1.38-0.16-2.09c0-0.65,0.05-1.28,0.13-1.91H544.26   c0.15,0.61,0.24,1.25,0.24,1.91c0,0.73-0.11,1.42-0.29,2.09H681.16z"
   id="path17"
   style="fill:#e50000;fill-opacity:0.41233766" />
	<path
   fill="#27B6B7"
   d="M440.74,54.17h-28.48c0.15,0.61,0.24,1.25,0.24,1.91c0,0.73-0.11,1.42-0.29,2.09h28.57   c-0.18-0.67-0.29-1.37-0.29-2.09C440.5,55.42,440.59,54.78,440.74,54.17z"
   id="path19"
   style="fill:#e50000;fill-opacity:0.41233766" />
	<path
   fill="#27B6B7"
   d="M396.74,54.17h-28.48c0.15,0.61,0.24,1.25,0.24,1.91c0,0.73-0.11,1.42-0.29,2.09h28.57   c-0.18-0.67-0.29-1.37-0.29-2.09C396.5,55.42,396.59,54.78,396.74,54.17z"
   id="path21"
   style="fill:#e50000;fill-opacity:0.41233766" />
	<path
   fill="#27B6B7"
   d="M264.74,54.17h-28.48c0.15,0.61,0.24,1.25,0.24,1.91c0,0.73-0.11,1.42-0.29,2.09h28.57   c-0.18-0.67-0.29-1.37-0.29-2.09C264.5,55.42,264.59,54.78,264.74,54.17z"
   id="path23"
   style="fill:#e50000;fill-opacity:0.41233766" />
	<path
   fill="#27B6B7"
   d="M352.74,54.17h-72.48c0.15,0.61,0.24,1.25,0.24,1.91c0,0.73-0.11,1.42-0.29,2.09h72.57   c-0.18-0.67-0.29-1.37-0.29-2.09C352.5,55.42,352.59,54.78,352.74,54.17z"
   id="path25"
   style="fill:#e50000;fill-opacity:0.41233766" />
</g>
<g
   id="master"
   style="fill:#000000;fill-opacity:0.35389611">
	<polygon
   fill="#27B6B7"
   points="330,14.17 330,14.77 330,18.17 567,18.17 567,14.17  "
   id="polygon28"
   style="fill:#000000;fill-opacity:0.35389611" />
	<rect
   x="575"
   y="14.17"
   fill="#27B6B7"
   width="9"
   height="4"
   id="rect30"
   style="fill:#000000;fill-opacity:0.35389611" />
	<rect
   x="619"
   y="14.17"
   fill="#27B6B7"
   width="9"
   height="4"
   id="rect32"
   style="fill:#000000;fill-opacity:0.35389611" />
	<polygon
   fill="#27B6B7"
   points="593,14.17 593,14.77 593,18.17 611,18.17 611,14.17  "
   id="polygon34"
   style="fill:#000000;fill-opacity:0.35389611" />
	<rect
   x="313"
   y="14.17"
   fill="#27B6B7"
   width="9"
   height="4"
   id="rect36"
   style="fill:#000000;fill-opacity:0.35389611" />
	<path
   fill="#27B6B7"
   d="M926,14.17H637v0.59v3.41h289c1.1,0,2-0.9,2-2S927.1,14.17,926,14.17z"
   id="path38"
   style="fill:#000000;fill-opacity:0.35389611" />
	<path
   fill="#27B6B7"
   d="M173,14.17H2c-1.1,0-2,0.9-2,2s0.9,2,2,2h171V14.17z"
   id="path40"
   style="fill:#000000;fill-opacity:0.35389611" />
	<polygon
   fill="#27B6B7"
   points="198,14.17 198,14.77 198,18.17 304,18.17 304,14.17  "
   id="polygon42"
   style="fill:#000000;fill-opacity:0.35389611" />
	<rect
   x="181"
   y="14.17"
   fill="#27B6B7"
   width="9"
   height="4"
   id="rect44"
   style="fill:#000000;fill-opacity:0.35389611" />
</g>
<g
   id="branch-activity"
   style="fill:#a10000;fill-opacity:0.6883117">
	<circle
   id="commit_8_"
   fill="#27B6B7"
   cx="96.5"
   cy="56.08"
   r="6"
   style="fill:#a10000;fill-opacity:0.6883117" />
	<circle
   id="commit_7_"
   fill="#27B6B7"
   cx="140.5"
   cy="56.08"
   r="6"
   style="fill:#a10000;fill-opacity:0.6883117" />
	<circle
   id="commit_6_"
   fill="#27B6B7"
   cx="228.5"
   cy="56.08"
   r="6"
   style="fill:#a10000;fill-opacity:0.6883117" />
	<circle
   id="commit_5_"
   fill="#27B6B7"
   cx="272.5"
   cy="56.08"
   r="6"
   style="fill:#a10000;fill-opacity:0.6883117" />
	<circle
   id="commit_4_"
   fill="#27B6B7"
   cx="360.5"
   cy="56.08"
   r="6"
   style="fill:#a10000;fill-opacity:0.6883117" />
	<circle
   id="commit_3_"
   fill="#27B6B7"
   cx="404.5"
   cy="56.08"
   r="6"
   style="fill:#a10000;fill-opacity:0.6883117" />
	<circle
   id="commit_2_"
   fill="#27B6B7"
   cx="448.5"
   cy="56.08"
   r="6"
   style="fill:#a10000;fill-opacity:0.6883117" />
	<circle
   id="commit_1_"
   fill="#27B6B7"
   cx="492.5"
   cy="56.08"
   r="6"
   style="fill:#a10000;fill-opacity:0.6883117" />
	<circle
   id="commit"
   fill="#27B6B7"
   cx="536.5"
   cy="56.08"
   r="6"
   style="fill:#a10000;fill-opacity:0.6883117" />
	<g
   id="first-dot"
   style="fill:#a10000;fill-opacity:0.6883117">
		<path
   fill="#27B6B7"
   d="M696.5,69.58c-7.44,0-13.5-6.06-13.5-13.5s6.06-13.5,13.5-13.5s13.5,6.06,13.5,13.5    S703.95,69.58,696.5,69.58z M696.5,47.58c-4.69,0-8.5,3.81-8.5,8.5s3.81,8.5,8.5,8.5s8.5-3.81,8.5-8.5S701.19,47.58,696.5,47.58z"
   id="path57"
   style="fill:#a10000;fill-opacity:0.6883117" />
	</g>
	<g
   id="final-dot"
   style="fill:#a10000;fill-opacity:0.6883117">
		<path
   fill="#27B6B7"
   d="M729.72,56.08c0-2.78,0.98-5.34,2.6-7.36l-4.91-4.91c-2.87,3.29-4.62,7.57-4.62,12.27    s1.75,8.98,4.62,12.27l4.91-4.91C730.7,61.42,729.72,58.86,729.72,56.08z"
   id="path60"
   style="fill:#a10000;fill-opacity:0.6883117" />
		<path
   fill="#27B6B7"
   d="M748.86,65.26c-2.02,1.62-4.57,2.6-7.36,2.6c-2.63,0-5.06-0.88-7.02-2.34l-4.94,4.94    c3.24,2.7,7.41,4.33,11.96,4.33c4.69,0,8.98-1.75,12.27-4.62L748.86,65.26z"
   id="path62"
   style="fill:#a10000;fill-opacity:0.6883117" />
		<path
   fill="#27B6B7"
   d="M753.28,56.08c0,2.63-0.88,5.06-2.34,7.02l4.94,4.94c2.7-3.24,4.33-7.41,4.33-11.96    c0-4.54-1.63-8.71-4.33-11.96l-4.94,4.94C752.4,51.02,753.28,53.45,753.28,56.08z"
   id="path64"
   style="fill:#a10000;fill-opacity:0.6883117" />
		<path
   fill="#27B6B7"
   d="M734.48,46.64c1.96-1.46,4.39-2.34,7.02-2.34c2.78,0,5.34,0.98,7.36,2.6l4.91-4.91    c-3.29-2.87-7.57-4.62-12.27-4.62c-4.54,0-8.71,1.63-11.96,4.33L734.48,46.64z"
   id="path66"
   style="fill:#a10000;fill-opacity:0.6883117" />
	</g>
</g>
<g
   id="pull-request-octicon"
   style="fill:#000000;fill-opacity:0.70588237">
	<g
   id="g69"
   style="fill:#000000;fill-opacity:0.70588237">
		<path
   fill="#27B6B7"
   d="M179.79,3.4c0.81,0.81,1.22,1.83,1.25,3.07c0,0.81-0.2,1.53-0.59,2.17c-0.39,0.64-0.92,1.15-1.57,1.53    v14.12c0.65,0.38,1.17,0.89,1.57,1.53c0.39,0.64,0.59,1.36,0.59,2.17c-0.02,1.24-0.44,2.26-1.25,3.07s-1.83,1.22-3.07,1.25    c-1.24-0.02-2.26-0.44-3.07-1.25s-1.22-1.83-1.25-3.07c0-0.81,0.2-1.53,0.59-2.17c0.39-0.64,0.91-1.15,1.57-1.53V10.17    c-0.65-0.38-1.17-0.89-1.57-1.53c-0.39-0.64-0.59-1.36-0.59-2.17c0.02-1.24,0.44-2.26,1.25-3.07s1.83-1.22,3.07-1.25    C177.95,2.18,178.98,2.59,179.79,3.4z M178.24,7.98c0.4-0.4,0.61-0.91,0.61-1.52s-0.2-1.11-0.61-1.52s-0.91-0.61-1.52-0.61    s-1.11,0.2-1.52,0.61s-0.61,0.91-0.61,1.52s0.2,1.11,0.61,1.52s0.91,0.62,1.52,0.64C177.33,8.6,177.83,8.39,178.24,7.98z     M178.24,29.55c0.4-0.4,0.61-0.91,0.61-1.52s-0.2-1.11-0.61-1.52s-0.91-0.61-1.52-0.61s-1.11,0.2-1.52,0.61s-0.61,0.91-0.61,1.52    s0.2,1.11,0.61,1.52s0.91,0.62,1.52,0.64C177.33,30.17,177.83,29.95,178.24,29.55z M197.69,25.86c0.39,0.64,0.59,1.36,0.59,2.17    c-0.02,1.23-0.44,2.26-1.25,3.07s-1.83,1.22-3.07,1.25c-1.24-0.02-2.26-0.44-3.07-1.25s-1.22-1.83-1.25-3.07    c0-0.81,0.2-1.53,0.59-2.17c0.39-0.64,0.91-1.15,1.57-1.53V10.78c-0.02-0.56-0.25-1.06-0.67-1.48c-0.43-0.43-0.92-0.65-1.48-0.67    h-2.16v4.31l-6.47-6.47L187.5,0v4.31c-0.05,0,0.04,0,0.27,0h1.89c1.68,0.07,3.17,0.74,4.45,2.02s1.95,2.76,2.02,4.45v7.98    c0,3.35,0,5.2,0,5.56C196.78,24.71,197.3,25.22,197.69,25.86z M195.49,29.55c0.4-0.4,0.61-0.91,0.61-1.52s-0.2-1.11-0.61-1.52    s-0.91-0.61-1.52-0.61s-1.11,0.2-1.52,0.61s-0.61,0.91-0.61,1.52s0.2,1.11,0.61,1.52s0.91,0.62,1.52,0.64    C194.58,30.17,195.08,29.95,195.49,29.55z"
   id="path71"
   style="fill:#000000;fill-opacity:0.70588237" />
	</g>
	<g
   id="g73"
   style="fill:#000000;fill-opacity:0.70588237">
		<path
   fill="#27B6B7"
   d="M311.7,3.4c0.81,0.81,1.22,1.83,1.25,3.07c0,0.81-0.2,1.53-0.59,2.17c-0.39,0.64-0.92,1.15-1.57,1.53    v14.12c0.65,0.38,1.17,0.89,1.57,1.53c0.39,0.64,0.59,1.36,0.59,2.17c-0.02,1.24-0.44,2.26-1.25,3.07s-1.83,1.22-3.07,1.25    c-1.24-0.02-2.26-0.44-3.07-1.25s-1.22-1.83-1.25-3.07c0-0.81,0.2-1.53,0.59-2.17c0.39-0.64,0.91-1.15,1.57-1.53V10.17    c-0.65-0.38-1.17-0.89-1.57-1.53c-0.39-0.64-0.59-1.36-0.59-2.17c0.02-1.24,0.44-2.26,1.25-3.07s1.83-1.22,3.07-1.25    C309.86,2.18,310.89,2.59,311.7,3.4z M310.15,7.98c0.4-0.4,0.61-0.91,0.61-1.52s-0.2-1.11-0.61-1.52s-0.91-0.61-1.52-0.61    s-1.11,0.2-1.52,0.61s-0.61,0.91-0.61,1.52s0.2,1.11,0.61,1.52s0.91,0.62,1.52,0.64C309.24,8.6,309.74,8.39,310.15,7.98z     M310.15,29.55c0.4-0.4,0.61-0.91,0.61-1.52s-0.2-1.11-0.61-1.52s-0.91-0.61-1.52-0.61s-1.11,0.2-1.52,0.61s-0.61,0.91-0.61,1.52    s0.2,1.11,0.61,1.52s0.91,0.62,1.52,0.64C309.24,30.17,309.74,29.95,310.15,29.55z M329.6,25.86c0.39,0.64,0.59,1.36,0.59,2.17    c-0.02,1.23-0.44,2.26-1.25,3.07s-1.83,1.22-3.07,1.25c-1.24-0.02-2.26-0.44-3.07-1.25s-1.22-1.83-1.25-3.07    c0-0.81,0.2-1.53,0.59-2.17c0.39-0.64,0.91-1.15,1.57-1.53V10.78c-0.02-0.56-0.25-1.06-0.67-1.48c-0.43-0.43-0.92-0.65-1.48-0.67    h-2.16v4.31l-6.47-6.47L319.41,0v4.31c-0.05,0,0.04,0,0.27,0h1.89c1.68,0.07,3.17,0.74,4.45,2.02s1.95,2.76,2.02,4.45v7.98    c0,3.35,0,5.2,0,5.56C328.69,24.71,329.21,25.22,329.6,25.86z M327.4,29.55c0.4-0.4,0.61-0.91,0.61-1.52s-0.2-1.11-0.61-1.52    s-0.91-0.61-1.52-0.61s-1.11,0.2-1.52,0.61s-0.61,0.91-0.61,1.52s0.2,1.11,0.61,1.52s0.91,0.62,1.52,0.64    C326.49,30.17,326.99,29.95,327.4,29.55z"
   id="path75"
   style="fill:#000000;fill-opacity:0.70588237" />
	</g>
	<g
   id="g77"
   style="fill:#000000;fill-opacity:0.70588237">
		<path
   fill="#27B6B7"
   d="M574.31,3.4c0.81,0.81,1.22,1.83,1.25,3.07c0,0.81-0.2,1.53-0.59,2.17c-0.39,0.64-0.92,1.15-1.57,1.53    v14.12c0.65,0.38,1.17,0.89,1.57,1.53c0.39,0.64,0.59,1.36,0.59,2.17c-0.02,1.24-0.44,2.26-1.25,3.07s-1.83,1.22-3.07,1.25    c-1.24-0.02-2.26-0.44-3.07-1.25s-1.22-1.83-1.25-3.07c0-0.81,0.2-1.53,0.59-2.17c0.39-0.64,0.91-1.15,1.57-1.53V10.17    c-0.65-0.38-1.17-0.89-1.57-1.53c-0.39-0.64-0.59-1.36-0.59-2.17c0.02-1.24,0.44-2.26,1.25-3.07s1.83-1.22,3.07-1.25    C572.48,2.18,573.51,2.59,574.31,3.4z M572.76,7.98c0.4-0.4,0.61-0.91,0.61-1.52s-0.2-1.11-0.61-1.52s-0.91-0.61-1.52-0.61    s-1.11,0.2-1.52,0.61s-0.61,0.91-0.61,1.52s0.2,1.11,0.61,1.52s0.91,0.62,1.52,0.64C571.85,8.6,572.36,8.39,572.76,7.98z     M572.76,29.55c0.4-0.4,0.61-0.91,0.61-1.52s-0.2-1.11-0.61-1.52s-0.91-0.61-1.52-0.61s-1.11,0.2-1.52,0.61s-0.61,0.91-0.61,1.52    s0.2,1.11,0.61,1.52s0.91,0.62,1.52,0.64C571.85,30.17,572.36,29.95,572.76,29.55z M592.22,25.86c0.39,0.64,0.59,1.36,0.59,2.17    c-0.02,1.23-0.44,2.26-1.25,3.07s-1.83,1.22-3.07,1.25c-1.24-0.02-2.26-0.44-3.07-1.25s-1.22-1.83-1.25-3.07    c0-0.81,0.2-1.53,0.59-2.17c0.39-0.64,0.91-1.15,1.57-1.53V10.78c-0.02-0.56-0.25-1.06-0.67-1.48c-0.43-0.43-0.92-0.65-1.48-0.67    h-2.16v4.31l-6.47-6.47L582.03,0v4.31c-0.05,0,0.04,0,0.27,0h1.89c1.68,0.07,3.17,0.74,4.45,2.02s1.95,2.76,2.02,4.45v7.98    c0,3.35,0,5.2,0,5.56C591.31,24.71,591.83,25.22,592.22,25.86z M590.01,29.55c0.4-0.4,0.61-0.91,0.61-1.52s-0.2-1.11-0.61-1.52    s-0.91-0.61-1.52-0.61s-1.11,0.2-1.52,0.61s-0.61,0.91-0.61,1.52s0.2,1.11,0.61,1.52s0.91,0.62,1.52,0.64    C589.1,30.17,589.61,29.95,590.01,29.55z"
   id="path79"
   style="fill:#000000;fill-opacity:0.70588237" />
	</g>
	<g
   id="g81"
   style="fill:#000000;fill-opacity:0.70588237">
		<path
   fill="#27B6B7"
   d="M618.17,3.4c0.81,0.81,1.22,1.83,1.25,3.07c0,0.81-0.2,1.53-0.59,2.17c-0.39,0.64-0.92,1.15-1.57,1.53    v14.12c0.65,0.38,1.17,0.89,1.57,1.53c0.39,0.64,0.59,1.36,0.59,2.17c-0.02,1.24-0.44,2.26-1.25,3.07s-1.83,1.22-3.07,1.25    c-1.24-0.02-2.26-0.44-3.07-1.25s-1.22-1.83-1.25-3.07c0-0.81,0.2-1.53,0.59-2.17c0.39-0.64,0.91-1.15,1.57-1.53V10.17    c-0.65-0.38-1.17-0.89-1.57-1.53c-0.39-0.64-0.59-1.36-0.59-2.17c0.02-1.24,0.44-2.26,1.25-3.07s1.83-1.22,3.07-1.25    C616.34,2.18,617.36,2.59,618.17,3.4z M616.62,7.98c0.4-0.4,0.61-0.91,0.61-1.52s-0.2-1.11-0.61-1.52s-0.91-0.61-1.52-0.61    s-1.11,0.2-1.52,0.61s-0.61,0.91-0.61,1.52s0.2,1.11,0.61,1.52s0.91,0.62,1.52,0.64C615.71,8.6,616.21,8.39,616.62,7.98z     M616.62,29.55c0.4-0.4,0.61-0.91,0.61-1.52s-0.2-1.11-0.61-1.52s-0.91-0.61-1.52-0.61s-1.11,0.2-1.52,0.61s-0.61,0.91-0.61,1.52    s0.2,1.11,0.61,1.52s0.91,0.62,1.52,0.64C615.71,30.17,616.21,29.95,616.62,29.55z M636.07,25.86c0.39,0.64,0.59,1.36,0.59,2.17    c-0.02,1.23-0.44,2.26-1.25,3.07s-1.83,1.22-3.07,1.25c-1.24-0.02-2.26-0.44-3.07-1.25s-1.22-1.83-1.25-3.07    c0-0.81,0.2-1.53,0.59-2.17c0.39-0.64,0.91-1.15,1.57-1.53V10.78c-0.02-0.56-0.25-1.06-0.67-1.48c-0.43-0.43-0.92-0.65-1.48-0.67    h-2.16v4.31l-6.47-6.47L625.88,0v4.31c-0.05,0,0.04,0,0.27,0h1.89c1.68,0.07,3.17,0.74,4.45,2.02s1.95,2.76,2.02,4.45v7.98    c0,3.35,0,5.2,0,5.56C635.16,24.71,635.68,25.22,636.07,25.86z M633.87,29.55c0.4-0.4,0.61-0.91,0.61-1.52s-0.2-1.11-0.61-1.52    s-0.91-0.61-1.52-0.61s-1.11,0.2-1.52,0.61s-0.61,0.91-0.61,1.52s0.2,1.11,0.61,1.52s0.91,0.62,1.52,0.64    C632.96,30.17,633.46,29.95,633.87,29.55z"
   id="path83"
   style="fill:#000000;fill-opacity:0.70588237" />
	</g>
</g>
</svg>